# xmcd
#
# Track frame offsets:
#	183
#	12618
#	25695
#	40400
#	52833
#	66218
#	79165
#	94308
#	107763
#	126008
#	145853
#	159125
#	172775
#	182493
#	196340
#	208623
#
# Disc length: 2944
#
# Revision: 2
# Processed by: cddbd v1.5.1PL0 Copyright (c) Steve Scherf et al.
# Submitted via: audiograbber 1.80.04
# Normalized: r1:DSETVAR1
#
DISCID=cc0b7e10
DTITLE=Various Artist - 16 Succès Volume 2
DYEAR=1900
DGENRE=Pop
TTITLE0=Yves Duteil - La tendre image du bonheur
TTITLE1=Isabelle Aubret - Deux enfants au soleil
TTITLE2=Serge Lama - Les ballons rouges
TTITLE3=Georges Moustaki - Dans mon hamac
TTITLE4=François Deguelt - Le ciel, le soleil et la mer
TTITLE5=Enricos Macias - Enfants de tous pays
TTITLE6=Richard Anthony - J'entend siffler le train
TTITLE7=Adamo - Mes mains sur tes hanches
TTITLE8=Gilbert Bécaud - Nathalie
TTITLE9=Nicole Croisille - Une femme aves toi
TTITLE10=Julien Clerc - Ivanovitch
TTITLE11=Georges Chelon - La rose des vents
TTITLE12=Régine - Les petits papiers
TTITLE13=Mike Brant - C'est ma prière
TTITLE14=Gloria Lasso - L'étranger au paradis
TTITLE15=Georges Chakiris - Maria
EXTD=
EXTT0=
EXTT1=
EXTT2=
EXTT3=
EXTT4=
EXTT5=
EXTT6=
EXTT7=
EXTT8=
EXTT9=
EXTT10=
EXTT11=
EXTT12=
EXTT13=
EXTT14=
EXTT15=
PLAYORDER=
